Coordinates
version=1
nRows=30
nColumns=38
inDegrees=no

Units are S.I. units (second, meters, Newtons, ...)
If the header above contains a line with 'inDegrees', this indicates whether rotational values are in degrees (yes) or radians (no).

endheader
time	pelvis_tilt	pelvis_list	pelvis_rotation	pelvis_tx	pelvis_ty	pelvis_tz	hip_flexion_r	hip_adduction_r	hip_rotation_r	knee_angle_r	ankle_angle_r	subtalar_angle_r	mtp_angle_r	hip_flexion_l	hip_adduction_l	hip_rotation_l	knee_angle_l	ankle_angle_l	subtalar_angle_l	mtp_angle_l	lumbar_extension	lumbar_bending	lumbar_rotation	arm_flex_r	arm_add_r	arm_rot_r	elbow_flex_r	pro_sup_r	wrist_flex_r	wrist_dev_r	arm_flex_l	arm_add_l	arm_rot_l	elbow_flex_l	pro_sup_l	wrist_flex_l	wrist_dev_l
1.37	2.80297	1.48071	-1.32774	0.476237	0.90571	0.959174	0.512481	-0.0559214	0.00641819	1.0476	-0.0581015	0	0	-0.0626512	0.0314241	-0.256204	0.233016	0.131457	0	0	-0.17071	-0.0205853	-0.0631772	-0.239275	-0.0957207	-0.428514	0.529701	0.92087	0	0	-0.135448	-0.414561	0.665757	0.642206	0.507712	0	0
1.38	2.81193	1.47883	-1.3381	0.476152	0.914479	0.958861	0.511865	-0.0575517	-0.00111992	1.0034	-0.0487743	0	0	-0.0823032	0.0355897	-0.247784	0.217387	0.132774	0	0	-0.174133	-0.0201158	-0.0590818	-0.233434	-0.0922234	-0.439111	0.527102	0.917366	0	0	-0.130159	-0.412816	0.662571	0.63896	0.521109	0	0
1.39	2.80553	1.47916	-1.33295	0.476336	0.922761	0.958229	0.512878	-0.0576697	-0.00990615	0.957942	-0.0413682	0	0	-0.0946181	0.0370039	-0.245987	0.212057	0.138754	0	0	-0.174787	-0.0188285	-0.0551448	-0.229534	-0.0895481	-0.446292	0.526068	0.910767	0	0	-0.125453	-0.411459	0.660172	0.63762	0.526758	0	0
1.4	2.79264	1.47998	-1.32079	0.476572	0.931018	0.957508	0.51309	-0.0570115	-0.0201923	0.910654	-0.036273	0	0	-0.105396	0.0375148	-0.244607	0.208495	0.145219	0	0	-0.174827	-0.017162	-0.051496	-0.227788	-0.0872866	-0.454142	0.528878	0.906424	0	0	-0.12098	-0.409955	0.656829	0.636268	0.532766	0	0
1.41	2.77451	1.48131	-1.30248	0.47681	0.939351	0.956679	0.512787	-0.0563633	-0.0329269	0.862254	-0.0332238	0	0	-0.11478	0.0372779	-0.243384	0.206376	0.152375	0	0	-0.174042	-0.015369	-0.0489139	-0.228461	-0.0861948	-0.460073	0.536185	0.904509	0	0	-0.11701	-0.408367	0.652857	0.634504	0.539254	0	0
1.42	2.74839	1.4827	-1.27526	0.477098	0.947743	0.955783	0.511436	-0.0551677	-0.0480994	0.813013	-0.031467	0	0	-0.123166	0.0359075	-0.242468	0.20579	0.160473	0	0	-0.17281	-0.0131922	-0.0476729	-0.231277	-0.0868266	-0.460871	0.543663	0.904158	0	0	-0.113775	-0.406759	0.64809	0.632349	0.545751	0	0
1.43	2.73357	1.48422	-1.25268	0.477943	0.956323	0.954851	0.507115	-0.0457621	-0.0603169	0.76482	-0.0369219	0	0	-0.13304	0.0295793	-0.247173	0.203015	0.172428	0	0	-0.171393	-0.0132209	-0.0509148	-0.236494	-0.0865025	-0.45762	0.550182	0.902029	0	0	-0.110435	-0.406834	0.642681	0.629654	0.552065	0	0
1.44	2.69265	1.48423	-1.2096	0.478254	0.964923	0.953921	0.502542	-0.0436461	-0.0780139	0.714185	-0.0343442	0	0	-0.142552	0.0261781	-0.245664	0.202409	0.180918	0	0	-0.170825	-0.00930304	-0.0518611	-0.240265	-0.0895175	-0.450447	0.556719	0.900383	0	0	-0.108738	-0.405005	0.636831	0.628015	0.557729	0	0
1.45	2.64415	1.48412	-1.1587	0.478666	0.973635	0.952915	0.497325	-0.0402404	-0.0959856	0.66387	-0.0304762	0	0	-0.151823	0.0218215	-0.24475	0.201877	0.189486	0	0	-0.169752	-0.0049049	-0.0534789	-0.243491	-0.0931391	-0.442172	0.561865	0.898284	0	0	-0.107646	-0.403493	0.631408	0.626979	0.562559	0	0
1.46	2.59236	1.48488	-1.10461	0.479213	0.982432	0.95173	0.492986	-0.0360075	-0.112666	0.614978	-0.0247571	0	0	-0.159947	0.0174977	-0.244651	0.20141	0.197973	0	0	-0.167271	-0.000899235	-0.0553774	-0.245722	-0.0963068	-0.436823	0.565913	0.891568	0	0	-0.107329	-0.402223	0.62571	0.626165	0.568968	0	0
1.47	2.53946	1.48369	-1.04943	0.479856	0.991423	0.950632	0.485621	-0.0300508	-0.129361	0.565711	-0.017719	0	0	-0.171927	0.012733	-0.242395	0.196823	0.205036	0	0	-0.166328	0.00401418	-0.05638	-0.247762	-0.0978863	-0.439793	0.568201	0.893522	0	0	-0.105688	-0.402761	0.629014	0.6278	0.55305	0	0
1.48	2.48138	1.48284	-0.989348	0.480667	1.00051	0.949426	0.478266	-0.0224581	-0.143083	0.516552	-0.0105272	0	0	-0.182482	0.00720208	-0.242107	0.193815	0.212782	0	0	-0.164474	0.00885389	-0.057188	-0.250743	-0.0986481	-0.442944	0.569459	0.890223	0	0	-0.104593	-0.402037	0.626881	0.626976	0.554403	0	0
1.49	2.42045	1.48169	-0.926727	0.481632	1.00965	0.948182	0.470216	-0.0131454	-0.153832	0.467198	-0.00410808	0	0	-0.192825	0.00109376	-0.242025	0.191045	0.220324	0	0	-0.162394	0.0138112	-0.0576719	-0.253927	-0.0986239	-0.447651	0.571947	0.887628	0	0	-0.103374	-0.401624	0.626691	0.625463	0.55559	0	0
1.5	2.35692	1.48095	-0.862096	0.482749	1.0189	0.946845	0.462432	-0.00279146	-0.161364	0.418331	0.00144685	0	0	-0.202043	-0.00501468	-0.24262	0.189114	0.228002	0	0	-0.158998	0.0181949	-0.0583154	-0.257608	-0.0987774	-0.44948	0.574795	0.889306	0	0	-0.103043	-0.40148	0.627277	0.623458	0.556813	0	0
1.51	2.29337	1.47994	-0.797946	0.484025	1.02824	0.945447	0.454096	0.00874199	-0.165532	0.370016	0.00610691	0	0	-0.210573	-0.0114852	-0.244589	0.188636	0.236	0	0	-0.155142	0.0223328	-0.0590772	-0.261174	-0.0989	-0.448455	0.578858	0.891264	0	0	-0.103139	-0.401429	0.627039	0.621634	0.557753	0	0
1.52	2.23036	1.47859	-0.734401	0.485411	1.03767	0.944008	0.44483	0.0212152	-0.166014	0.321698	0.00957595	0	0	-0.217936	-0.0186045	-0.247974	0.190707	0.244661	0	0	-0.151088	0.0263821	-0.0600148	-0.264741	-0.0989234	-0.444654	0.582692	0.894615	0	0	-0.103274	-0.401526	0.627271	0.619759	0.556358	0	0
1.53	2.16779	1.47697	-0.671236	0.486879	1.04716	0.94254	0.434861	0.0342297	-0.162672	0.273705	0.0112793	0	0	-0.22387	-0.0263457	-0.252276	0.195502	0.253866	0	0	-0.146898	0.0304598	-0.0613206	-0.267384	-0.0983595	-0.44117	0.586892	0.89463	0	0	-0.10383	-0.401538	0.627222	0.617563	0.556842	0	0
1.54	2.10177	1.47501	-0.604378	0.488427	1.05674	0.941052	0.424133	0.0478848	-0.154759	0.225533	0.00963372	0	0	-0.227298	-0.035364	-0.258872	0.204618	0.264283	0	0	-0.142274	0.0348741	-0.06344	-0.270307	-0.0984108	-0.431615	0.591187	0.881221	0	0	-0.105796	-0.398967	0.616374	0.611825	0.582064	0	0
1.55	2.04098	1.47473	-0.542717	0.489978	1.06641	0.939444	0.417128	0.0582622	-0.150268	0.186313	0.00995136	0	0	-0.229712	-0.0419444	-0.262667	0.213372	0.272664	0	0	-0.136455	0.0372115	-0.0651257	-0.271345	-0.0956833	-0.434375	0.592966	0.885942	0	0	-0.106892	-0.400162	0.619728	0.610714	0.575767	0	0
1.56	1.98619	1.4737	-0.486542	0.491508	1.07617	0.937902	0.408998	0.0684342	-0.143764	0.149978	0.00840414	0	0	-0.231388	-0.0493342	-0.268085	0.225357	0.281546	0	0	-0.131501	0.039861	-0.0671607	-0.271525	-0.0928267	-0.437813	0.594348	0.887369	0	0	-0.107697	-0.400992	0.622442	0.608985	0.571578	0	0
1.57	1.9409	1.47259	-0.439762	0.493079	1.08605	0.936431	0.402786	0.0771443	-0.141416	0.123285	0.00849219	0	0	-0.233104	-0.0565403	-0.273588	0.239061	0.289713	0	0	-0.127373	0.0419123	-0.0688556	-0.271654	-0.0902434	-0.43966	0.593741	0.889699	0	0	-0.108178	-0.401893	0.624481	0.607617	0.568957	0	0
1.58	1.90812	1.47122	-0.405635	0.494707	1.09602	0.935068	0.399247	0.0845747	-0.145353	0.109174	0.0110069	0	0	-0.235382	-0.063796	-0.280236	0.254297	0.297222	0	0	-0.124641	0.043585	-0.0700137	-0.271385	-0.0878841	-0.441534	0.593372	0.891649	0	0	-0.108491	-0.402955	0.626055	0.607125	0.566583	0	0
1.59	1.88605	1.47009	-0.382664	0.496389	1.1061	0.933831	0.399996	0.0901177	-0.155592	0.110114	0.0157948	0	0	-0.238025	-0.0706371	-0.287331	0.270793	0.303499	0	0	-0.122898	0.0444945	-0.0704018	-0.27128	-0.0862885	-0.441407	0.592035	0.89515	0	0	-0.108653	-0.404033	0.627393	0.607107	0.564177	0	0
1.6	1.86975	1.46924	-0.365827	0.498111	1.11633	0.932718	0.40414	0.0941916	-0.169094	0.123292	0.020104	0	0	-0.240778	-0.0771746	-0.294059	0.288262	0.308461	0	0	-0.121403	0.0449745	-0.0702848	-0.271173	-0.0854707	-0.440522	0.590309	0.897651	0	0	-0.108933	-0.405191	0.629488	0.607127	0.561703	0	0
1.61	1.85663	1.46822	-0.351795	0.499796	1.12675	0.931716	0.409056	0.097626	-0.182718	0.143123	0.0220754	0	0	-0.24332	-0.0840218	-0.299497	0.306883	0.312265	0	0	-0.119798	0.0457278	-0.0706371	-0.271219	-0.085405	-0.439598	0.588612	0.897882	0	0	-0.109896	-0.406021	0.631297	0.607067	0.559073	0	0
1.62	1.84528	1.46683	-0.338467	0.501362	1.13739	0.930825	0.412437	0.1009	-0.193376	0.164605	0.0221856	0	0	-0.245173	-0.0916068	-0.30267	0.327057	0.314708	0	0	-0.117889	0.0470764	-0.0722001	-0.271798	-0.0859993	-0.438248	0.585398	0.897341	0	0	-0.11179	-0.406309	0.631291	0.607315	0.556273	0	0
1.63	1.81815	1.46517	-0.307247	0.502817	1.14823	0.929854	0.416333	0.104161	-0.20415	0.187546	0.0234308	0	0	-0.241631	-0.102273	-0.306543	0.354754	0.318374	0	0	-0.113782	0.0495672	-0.0759873	-0.274023	-0.0880381	-0.431217	0.581719	0.885518	0	0	-0.115366	-0.405454	0.625664	0.607061	0.560282	0	0
1.64	1.80998	1.46347	-0.29462	0.504232	1.15944	0.929216	0.413064	0.10815	-0.204658	0.203855	0.0238689	0	0	-0.242715	-0.11027	-0.302413	0.375969	0.315991	0	0	-0.111146	0.0517328	-0.0794595	-0.276447	-0.0889148	-0.433375	0.578224	0.885684	0	0	-0.11832	-0.405471	0.625438	0.607457	0.557079	0	0
1.65	1.78638	1.46162	-0.264789	0.505631	1.17089	0.928482	0.409042	0.112764	-0.203429	0.216985	0.0273928	0	0	-0.239527	-0.120531	-0.298704	0.402127	0.31369	0	0	-0.105798	0.0547539	-0.0847979	-0.280076	-0.0898808	-0.436665	0.575601	0.882678	0	0	-0.122604	-0.405306	0.624733	0.607456	0.554693	0	0
1.66	1.75181	1.45955	-0.223071	0.507067	1.18253	0.927686	0.403488	0.118309	-0.199085	0.223707	0.0319077	0	0	-0.233252	-0.132248	-0.294973	0.431285	0.310098	0	0	-0.0983849	0.058377	-0.090587	-0.285551	-0.0908676	-0.43982	0.572543	0.878866	0	0	-0.12739	-0.404754	0.62341	0.606871	0.553031	0	0
